<?xml version="1.0" standalone="no"?><!DOCTYPE svg PUBLIC "-//W3C//DTD SVG 1.1//EN" "http://www.w3.org/Graphics/SVG/1.1/DTD/svg11.dtd"><svg class="icon" width="200px" height="200.00px" viewBox="0 0 1024 1024" version="1.1" xmlns="http://www.w3.org/2000/svg"><path d="M498.523569 648.362714 77.694011 648.362714c-7.6574 0-13.854543-6.223748-13.854543-13.880125 0-7.658424 6.197142-13.854543 13.854543-13.854543l420.829558 0c39.697117 0 70.78823-30.848589 70.78823-70.240761 0-38.721907-31.970132-70.232574-71.26202-70.232574-7.6574 0-13.840216-6.197142-13.840216-13.854543s6.182816-13.854543 13.840216-13.854543c54.56678 0 98.971106 43.931558 98.971106 97.94166C597.020884 604.390223 552.832476 648.362714 498.523569 648.362714zM566.361607 811.370275c0-28.792767-23.406083-52.170197-52.170197-52.170197L230.09398 759.200078c-7.6574 0-13.854543 6.167466-13.854543 13.826913 0 7.656377 6.197142 13.854543 13.854543 13.854543l284.09743 0c13.246699 0 24.449855 11.202133 24.449855 24.489764 0 13.447267-10.70276 24.433482-23.879873 24.433482-7.658424 0-13.854543 6.198166-13.854543 13.854543 0 7.658424 6.196119 13.854543 13.854543 13.854543C543.199071 863.512842 566.361607 840.10676 566.361607 811.370275zM534.892895 703.780885c0-7.68503-6.198166-13.882172-13.854543-13.882172L105.403097 689.898713c-7.6574 0-13.854543 6.198166-13.854543 13.882172 0 7.630794 6.196119 13.826913 13.854543 13.826913l415.635255 0C528.694729 717.607798 534.892895 711.411679 534.892895 703.780885zM857.496313 704.376449c64.277956-60.668755 102.662171-146.074913 102.662171-228.52474 0-173.898609-138.152477-315.365574-307.937394-315.365574-138.773623 0-266.089287 99.511411-302.741046 236.635465-1.974981 7.387247 2.408863 14.97711 9.822716 16.95209 7.333012 2.056845 14.990413-2.394537 16.939811-9.80839 33.472346-125.177977 149.530618-216.07008 275.979542-216.07008 154.51105 0 280.21603 129.047098 280.21603 287.656489 0 74.969459-35.123962 152.837944-93.964068 208.364585-55.906288 52.740178-128.181381 79.392188-203.488531 74.982762-7.766894-0.461511-14.192234 5.384637-14.626115 13.041014-0.446162 7.630794 5.384637 14.179954 13.028735 14.611789 5.900384 0.352017 11.797697 0.515746 17.670451 0.515746C727.635687 787.368628 800.373315 758.252497 857.496313 704.376449zM111.600239 575.810305c4.451382-41.699728 23.433712-81.205487 53.469795-111.24157 50.114374-50.142004 124.744096-67.526953 190.133362-44.296879 7.184633 2.503007 15.139815-1.217734 17.71036-8.41567 2.543939-7.197936-1.216711-15.139815-8.41567-17.696034-75.414597-26.77583-161.355945-6.832615-219.019249 50.817386-34.500768 34.500768-56.32482 79.920214-61.424978 127.911228-0.811482 7.609305 4.694929 14.428617 12.31242 15.240099 0.487094 0.054235 0.98749 0.081864 1.488911 0.081864C104.835162 588.209706 110.841969 582.932516 111.600239 575.810305z" /></svg>